<?xml version="1.0" encoding="utf-8"?>
<!-- Generator: Adobe Illustrator 24.1.1, SVG Export Plug-In . SVG Version: 6.00 Build 0)  -->
<svg version="1.1" id="Layer_3" xmlns="http://www.w3.org/2000/svg" xmlns:xlink="http://www.w3.org/1999/xlink" x="0px" y="0px"
	 viewBox="0 0 878.6 878.9" style="enable-background:new 0 0 878.6 878.9;" xml:space="preserve">
<style type="text/css">
	.st0{fill:#6C63FF;}
	.st1{fill:#55514F;}
</style>
<path class="st0" d="M750.1,325.2L446.7,628.7c-3.9,3.9-10.2,3.9-14.1,0L317.4,513.5c-3.9-3.9-10.2-3.9-14.1,0L196,620.8
	c-3.9,3.9-3.9,10.2,0,14.1c62.3,62.2,174.8,174.9,237,237c3.9,3.9,10.2,3.9,14.1,0c51.7-51.8,372.9-373.4,424.6-425.2
	c3.9-3.9,3.9-10.2,0-14.1L764.2,325.2C760.3,321.4,754,321.4,750.1,325.2z"/>
<path class="st1" d="M681.9,244.5C645.8,208.4,481.4,43.4,445.2,7.1c-3.9-3.9-10.2-3.9-14.1,0L275,163.7c-6.3,6.3-17,1.9-17-7v-42.8
	c0-5.5-4.5-10-10-10H129c-5.5,0-10,4.5-10,10v202.3c0,2.6-1,5.2-2.9,7L7.7,431.9c-3.9,3.9-3.9,10.2,0,14.1l107,107.4
	c3.9,3.9,10.2,3.9,14.1,0L431.1,250c3.9-3.9,10.2-3.9,14.1,0L560.8,366c3.9,3.9,10.2,3.9,14.1,0l107-107.4
	C685.8,254.7,685.8,248.4,681.9,244.5z"/>
</svg>
